# xmcd
#
# Track frame offsets:
# 150
# 19990
# 36023
# 57814
#
# Disc length: 1075 seconds
#
#
# Revision: 0
# Processed by: cddbd v1.4PL0 Copyright (c) Steve Scherf et al.
# Submitted via: FreeRIP 2.35 
#
DISCID=2a043104
DTITLE=мийос йаябекас - PARTY циа спаслемес йаядиес
DYEAR=1900
DGENRE=Folk
TTITLE0=BOOM BOOM BOOM
TTITLE1=жеуцеис(г тсивка)
TTITLE2=PARTY циа спаслемес йаядиес
TTITLE3=йати миыхы
EXTD=
EXTT0=
EXTT1=
EXTT2=
EXTT3=
PLAYORDER=
